# xmcd CD database file
#
# Track frame offsets:
#	150
#	15630
#	26912
#	51662
#	80022
#	92805
#	112232
#	124362
#	136715
#	146227
#	162755
#	175655
#	185375
#	196827
#	208895
#	221622
#	232905
#	243567
#	255845
#	267162
#
# Disc length: 3692 seconds
#
# Revision: 4
# Processed by: cddbd v1.5.2PL0 Copyright (c) Steve Scherf et al.
# Submitted via: CDex 1.70beta2
#
DISCID=260e6a14
DTITLE=Dinah Washington - Smoke Gets in Your Eyes 1 - The Best Of
DYEAR=1999
DGENRE=Jazz
TTITLE0=Smoke Gets In Your Eyes
TTITLE1=Everytime We Say Goodbye
TTITLE2=All Of Me
TTITLE3=I Get a Kick Out Of You
TTITLE4=Mad About The Boy
TTITLE5=Manhattan
TTITLE6=Everybody Loves My Baby
TTITLE7=Unforgettable
TTITLE8=Love Letters
TTITLE9=Stardust
TTITLE10=Cry Me a River
TTITLE11=September In The Rain
TTITLE12=Love Is Here To Stay
TTITLE13=Blue Skies
TTITLE14=Ain't Misbehavin'
TTITLE15=Come Rain Or Come Shine
TTITLE16=It Could Happen To You
TTITLE17=Dream
TTITLE18=What Difference a Day Makes
TTITLE19=Love For Sale
EXTD=YEAR: 1999
EXTT0=
EXTT1=
EXTT2=
EXTT3=
EXTT4=
EXTT5=
EXTT6=
EXTT7=
EXTT8=
EXTT9=
EXTT10=
EXTT11=
EXTT12=
EXTT13=
EXTT14=
EXTT15=
EXTT16=
EXTT17=
EXTT18=
EXTT19=
PLAYORDER=
